<svg width="61" height="61" viewBox="0 0 61 61" fill="none" xmlns="http://www.w3.org/2000/svg">
<g clip-path="url(#clip0_456_2480)">
<path d="M58.6015 18.628C57.0648 14.9971 54.8676 11.7345 52.0665 8.93348C49.2655 6.1324 46.0053 3.93279 42.372 2.39846C38.6111 0.807671 34.6169 0 30.5 0C26.3831 0 22.3889 0.807671 18.628 2.39846C14.9971 3.93525 11.7345 6.1324 8.93348 8.93348C6.1324 11.7345 3.93279 14.9947 2.39846 18.628C0.807671 22.3889 0 26.3831 0 30.5C0 34.6169 0.807671 38.6111 2.39846 42.372C3.93525 46.0029 6.1324 49.2655 8.93348 52.0665C11.7345 54.8676 14.9947 57.0672 18.628 58.6015C22.3889 60.1923 26.3831 61 30.5 61C34.6169 61 38.6111 60.1923 42.372 58.6015C46.0029 57.0648 49.2655 54.8676 52.0665 52.0665C54.8676 49.2655 57.0672 46.0053 58.6015 42.372C60.1923 38.6111 61 34.6169 61 30.5C61 26.3831 60.1923 22.3889 58.6015 18.628ZM17.7295 55.0002C8.90156 50.3824 2.8649 41.1323 2.8649 30.5C2.8649 19.8677 8.90402 10.6176 17.7295 5.99738V55.0002ZM30.4975 58.1326C27.0091 58.1326 23.6704 57.4821 20.5944 56.2964V31.9312H49.835V29.0663H20.5944V4.70118C23.6704 3.51545 27.0091 2.8649 30.4975 2.8649C45.7353 2.8649 58.1326 15.2623 58.1326 30.5C58.1326 45.7377 45.7353 58.1351 30.4975 58.1351V58.1326Z" fill="#121212"/>
</g>
<defs>
<clipPath id="clip0_456_2480">
<rect width="61" height="61" fill="white"/>
</clipPath>
</defs>
</svg>
