{
  "asset": {
    "generator": "Khronos glTF Blender I/O v1.5.17",
    "version": "2.0"
  },
  "scene": 0,
  "scenes": [
    {
      "name": "Scene",
      "nodes": [0, 1, 2]
    }
  ],
  "nodes": [
    {
      "mesh": 0,
      "name": "Cube",
      "scale": [5.599999904632568, 0.10000000149011612, 4.599999904632568],
      "translation": [1, 0.05000000074505806, -1]
    },
    {
      "name": "Light",
      "rotation": [
        0.16907575726509094, 0.7558803558349609, -0.27217137813568115,
        0.570947527885437
      ],
      "translation": [4.564968109130859, 5.0001540184021, -4.625799655914307]
    },
    {
      "name": "Camera",
      "rotation": [
        0.2570208013057709, 0.741974413394928, -0.4596787989139557,
        0.4148610830307007
      ],
      "translation": [7.358891487121582, 4.958309173583984, -5.349393367767334]
    }
  ],
  "materials": [
    {
      "doubleSided": true,
      "name": "Mat\u00e9riau",
      "pbrMetallicRoughness": {
        "baseColorFactor": [
          0.800000011920929, 0.800000011920929, 0.800000011920929, 1
        ],
        "metallicFactor": 0,
        "roughnessFactor": 0.5
      }
    }
  ],
  "meshes": [
    {
      "name": "Cube.002",
      "primitives": [
        {
          "attributes": {
            "POSITION": 0,
            "NORMAL": 1,
            "TEXCOORD_0": 2
          },
          "indices": 3,
          "material": 0
        }
      ]
    }
  ],
  "accessors": [
    {
      "bufferView": 0,
      "componentType": 5126,
      "count": 1627,
      "max": [0.9963181018829346, 47.89957046508789, 0.8995785713195801],
      "min": [-0.8995785713195801, -0.8995785713195801, -1.0429506301879883],
      "type": "VEC3"
    },
    {
      "bufferView": 1,
      "componentType": 5126,
      "count": 1627,
      "type": "VEC3"
    },
    {
      "bufferView": 2,
      "componentType": 5126,
      "count": 1627,
      "type": "VEC2"
    },
    {
      "bufferView": 3,
      "componentType": 5123,
      "count": 2580,
      "type": "SCALAR"
    }
  ],
  "bufferViews": [
    {
      "buffer": 0,
      "byteLength": 19524,
      "byteOffset": 0
    },
    {
      "buffer": 0,
      "byteLength": 19524,
      "byteOffset": 19524
    },
    {
      "buffer": 0,
      "byteLength": 13016,
      "byteOffset": 39048
    },
    {
      "buffer": 0,
      "byteLength": 5160,
      "byteOffset": 52064
    }
  ],
  "buffers": [
    {
      "byteLength": 57224,
      "uri": "data:application/octet-stream;base64,"
    }
  ]
}
